<?xml version="1.0" encoding="UTF-8" standalone="no"?>
<!-- Created with Inkscape (http://www.inkscape.org/) -->

<svg
   width="55.411503mm"
   height="63.745422mm"
   viewBox="0 0 55.411503 63.745422"
   version="1.1"
   id="svg1"
   xml:space="preserve"
   xmlns="http://www.w3.org/2000/svg"
   xmlns:svg="http://www.w3.org/2000/svg"><style>
    .logo-fill { fill: #ffffff; }
    .logo-line { fill: #000000; }
    @media (prefers-color-scheme: dark) {
      .logo-fill { fill: #000000; }
      .logo-line { fill: #ffffff; }
    }
  </style><defs
     id="defs1" /><g
     id="layer1"
     transform="translate(-77.418311,-98.619741)"><g
       id="g2"
       transform="translate(2.2942504,3.1272904)"><path
         id="path2"
         class="logo-fill" style="stroke-width:0.181044"
         d="m 96.829746,122.02201 c -3.231811,0.0201 -3.8189,0.0195 -7.049182,0.12919 -1.036132,0.0699 -2.082848,0.0979 -3.101891,0.31323 -1.107262,0.27573 -2.120611,0.89506 -2.914324,1.71005 -1.218671,1.2734 -1.884246,2.95274 -2.392881,4.61201 -0.96221,3.30401 -1.69137,6.69584 -1.863984,10.14068 -0.12382,2.43499 -0.09399,4.88383 0.187909,7.30731 0.151966,1.12867 0.317384,2.27866 0.780579,3.32847 0.615567,1.28756 1.855362,2.15247 3.147039,2.67507 1.449427,0.59022 3.018621,0.77058 4.557154,0.98083 3.175865,0.40378 3.732091,0.54792 6.931441,0.59141 5.205694,0.0693 10.413654,0.002 15.615534,-0.20715 2.13415,-0.0984 4.27271,-0.18529 6.3934,-0.45669 1.5878,-0.23433 3.20586,-0.46197 4.68805,-1.10971 0.94866,-0.41761 1.78415,-1.11697 2.281,-2.03497 0.55934,-1.00432 0.82663,-2.13981 1.03231,-3.26181 0.2166,-1.58004 0.23074,-3.17973 0.23428,-4.77206 -0.007,-2.28801 -0.1232,-4.57877 -0.44975,-6.84493 -0.38018,-2.82993 -0.91204,-5.68882 -2.16103,-8.27969 -0.60317,-1.23453 -1.27136,-2.51171 -2.3923,-3.35619 -1.12242,-0.84146 -2.54987,-1.0818 -3.91038,-1.23196 -1.37529,-0.14529 -2.76102,-0.12682 -4.14196,-0.16364 -5.15656,-0.076 -10.314,-0.0818 -15.471014,-0.0695 z" /><path
         class="logo-line"
         d="m 81.605461,158.46014 c -1.297938,-1.27113 -0.126726,-3.83274 -2.777301,-3.67831 -3.577496,-1.56713 -3.571877,-6.04981 -3.661199,-9.37379 -0.131936,-5.8858 -0.06548,-11.8615 1.776513,-17.52004 1.053703,-3.26855 3.361216,-7.67527 7.317993,-8.27611 4.152845,-0.79281 5.225365,-0.72027 9.417996,-1.02803 1.086223,-1.4418 6.176802,-1.47755 3.08928,-3.47799 -3.120867,-2.7802 -5.9686,-5.90971 -9.318088,-8.4053 -3.237043,0.028 -3.323424,-4.61003 0.06693,-4.45292 2.89552,0.82697 2.086712,1.6451 4.01771,3.69521 3.050257,2.63884 7.597999,7.40391 10.850855,9.78246 2.25859,-1.73705 2.09344,-6.05615 3.38054,-8.75566 0.62044,-2.98306 2.39651,-5.94366 1.84959,-9.030223 -0.19402,-3.62905 5.83775,-3.00959 4.87844,0.463211 -2.09619,2.554162 -2.57142,5.975392 -3.59705,9.090262 -0.81071,2.78126 -1.66217,5.55201 -2.4054,8.35203 2.44232,0.73519 5.11849,1.05092 7.29166,2.54833 3.87175,1.08788 7.18305,0.157 10.81094,2.13611 2.99427,2.76904 3.76712,7.08106 4.72046,10.88277 1.28215,6.77815 1.98264,13.99789 -0.1089,20.68071 -0.24732,1.97714 -2.92701,2.18927 -3.57709,3.37937 0.39178,1.3682 -0.0691,3.47126 -1.61906,3.62626 -14.93402,0.0465 -26.693034,0.0929 -41.627052,0.13938 -0.259255,-0.25924 -0.51851,-0.51849 -0.777765,-0.77773 z m 33.088899,-5.43833 c 2.94848,-0.51711 6.57088,-0.26524 8.76313,-2.64517 2.04169,-3.62769 1.4949,-8.03786 1.37838,-12.04297 -0.49031,-4.8639 -1.03848,-10.14865 -4.13027,-14.1241 -2.51346,-2.15245 -5.11237,-1.45236 -8.16832,-1.75732 -8.5313,-0.0269 -13.905278,-0.26751 -22.425641,0.23601 -3.557589,-0.25677 -6.930963,2.68142 -7.700804,5.84046 -1.886891,6.27339 -2.800286,13.08814 -1.410828,19.5569 0.407671,3.5848 4.328855,4.26525 7.252308,4.65564 7.472528,0.98486 11.870055,0.55762 19.387115,0.56857 2.35252,-0.0559 4.70953,-0.0833 7.05493,-0.28802 z"
         id="path1" /></g></g></svg>
